<svg width="16" height="16" viewBox="0 0 16 16" fill="none" xmlns="http://www.w3.org/2000/svg">
<path d="M12.2314 11.5328H3.76863C2.74759 11.5328 1.91992 10.7052 1.91992 9.68413V4.05603C1.91992 3.03498 2.74759 2.20731 3.76863 2.20731H12.2314C13.2524 2.20731 14.0801 3.03498 14.0801 4.05603V9.68425C14.08 10.7052 13.2523 11.5328 12.2314 11.5328Z" fill="#E0EBFC"/>
<path d="M3.76855 9.19116V4.54888C3.76855 4.2766 3.98925 4.05591 4.26153 4.05591H11.7385C12.0107 4.05591 12.2314 4.2766 12.2314 4.54888V9.19116C12.2314 9.46343 12.0107 9.68413 11.7385 9.68413H4.26153C3.98925 9.68413 3.76855 9.46343 3.76855 9.19116Z" fill="#6BDDDD"/>
<path d="M10.5266 2.20731H5.47351C5.47351 1.11832 6.35629 0.235535 7.44529 0.235535H8.5549C9.64377 0.235535 10.5266 1.11832 10.5266 2.20731Z" fill="#F9A7A7"/>
<path d="M14.0801 9.02687V4.71329C15.0103 4.71329 15.7644 5.46735 15.7644 6.3976V7.34245C15.7645 8.27281 15.0103 9.02687 14.0801 9.02687Z" fill="#F9CFCF"/>
<path d="M1.91991 9.02687C0.989661 9.02687 0.235596 8.27281 0.235596 7.34256V6.39771C0.235596 5.46747 0.989661 4.71341 1.91991 4.71341V9.02687Z" fill="#F9CFCF"/>
<path d="M10.7935 14.9428H5.28874C4.85759 14.9428 4.50806 14.5933 4.50806 14.1621C4.50806 12.7099 5.68526 11.5328 7.13733 11.5328H8.94471C10.3969 11.5328 11.574 12.71 11.574 14.1621C11.5741 14.5933 11.2247 14.9428 10.7935 14.9428Z" fill="#E0EBFC"/>
<path d="M5.94588 7.35363C5.53747 7.35363 5.20642 7.02259 5.20642 6.61417V5.73115C5.20642 5.32273 5.53747 4.99169 5.94588 4.99169C6.3543 4.99169 6.68534 5.32273 6.68534 5.73115V6.61417C6.68534 7.02259 6.3543 7.35363 5.94588 7.35363Z" fill="#4671C6"/>
<path d="M10.1362 7.35363C9.72777 7.35363 9.39673 7.02259 9.39673 6.61417V5.73115C9.39673 5.32273 9.72777 4.99169 10.1362 4.99169C10.5446 4.99169 10.8757 5.32273 10.8757 5.73115V6.61417C10.8757 7.02259 10.5446 7.35363 10.1362 7.35363Z" fill="#4671C6"/>
<path d="M8.04109 9.02687C7.379 9.02687 6.84045 8.48832 6.84045 7.82623C6.84045 7.69622 6.94597 7.5907 7.07599 7.5907C7.206 7.5907 7.31152 7.69622 7.31152 7.82623C7.31152 8.22853 7.6388 8.5558 8.04109 8.5558C8.44339 8.5558 8.77054 8.22853 8.77054 7.82623C8.77054 7.69622 8.87606 7.5907 9.00608 7.5907C9.13609 7.5907 9.24161 7.69622 9.24161 7.82623C9.24161 8.48832 8.70306 9.02687 8.04109 9.02687Z" fill="#4671C6"/>
<path d="M12.2315 11.7684H3.7687C2.6194 11.7684 1.68445 10.8334 1.68445 9.68413V4.05603C1.68445 2.90674 2.6194 1.97178 3.7687 1.97178H12.2315C13.3806 1.97178 14.3156 2.90674 14.3156 4.05603V9.68425C14.3156 10.8334 13.3806 11.7684 12.2315 11.7684ZM3.76858 2.44285C2.87896 2.44285 2.1554 3.16653 2.1554 4.05603V9.68425C2.1554 10.5737 2.87908 11.2974 3.76858 11.2974H12.2313C13.1208 11.2974 13.8444 10.5737 13.8444 9.68425V4.05603C13.8444 3.16653 13.1207 2.44285 12.2313 2.44285H3.76858Z" fill="#3762CC"/>
<path d="M11.7385 9.91978H4.26159C3.85989 9.91978 3.53308 9.59298 3.53308 9.19127V4.549C3.53308 4.1473 3.85977 3.82049 4.26159 3.82049H11.7385C12.1402 3.82049 12.467 4.1473 12.467 4.549V9.19127C12.467 9.59298 12.1402 9.91978 11.7385 9.91978ZM4.26159 4.29156C4.11968 4.29156 4.00415 4.40697 4.00415 4.549V9.19127C4.00415 9.3333 4.11956 9.44871 4.26159 9.44871H11.7385C11.8804 9.44871 11.996 9.3333 11.996 9.19127V4.549C11.996 4.40697 11.8806 4.29156 11.7385 4.29156H4.26159Z" fill="#3762CC"/>
<path d="M10.5265 2.44285H5.47345C5.34343 2.44285 5.23792 2.33733 5.23792 2.20731C5.23792 0.990188 6.22799 0 7.44511 0H8.55472C9.77184 0 10.762 0.990188 10.762 2.20731C10.762 2.33733 10.6566 2.44285 10.5265 2.44285ZM5.72488 1.97178H10.2752C10.1599 1.12538 9.43232 0.47107 8.55483 0.47107H7.44523C6.56774 0.47107 5.84018 1.12538 5.72488 1.97178Z" fill="#3762CC"/>
<path d="M14.08 9.26241C13.95 9.26241 13.8445 9.15689 13.8445 9.02687V4.71329C13.8445 4.58327 13.95 4.47775 14.08 4.47775C15.1386 4.47775 16 5.33899 16 6.3976V7.34245C16 8.40117 15.1386 9.26241 14.08 9.26241ZM14.3156 4.96802V8.77226C15.0028 8.65944 15.5289 8.0613 15.5289 7.34256V6.39771C15.5289 5.67886 15.0028 5.08072 14.3156 4.96802Z" fill="#3762CC"/>
<path d="M1.91984 9.26241C0.861233 9.26241 0 8.40117 0 7.34245V6.3976C0 5.33899 0.861233 4.47775 1.91984 4.47775C2.04986 4.47775 2.15538 4.58327 2.15538 4.71329V9.02687C2.15538 9.15701 2.04998 9.26241 1.91984 9.26241ZM1.68431 4.96802C0.997019 5.08084 0.47107 5.67898 0.47107 6.39771V7.34256C0.47107 8.0613 0.997019 8.65944 1.68431 8.77226V4.96802Z" fill="#3762CC"/>
<path d="M10.7935 15.1783H5.28868C4.72834 15.1783 4.27258 14.7225 4.27258 14.1622C4.27258 12.5825 5.55778 11.2973 7.13739 11.2973H8.94477C10.5245 11.2973 11.8097 12.5825 11.8097 14.1622C11.8097 14.7225 11.3538 15.1783 10.7935 15.1783ZM7.13739 11.7684C5.81746 11.7684 4.74365 12.8423 4.74365 14.1622C4.74365 14.4628 4.98814 14.7073 5.28868 14.7073H10.7935C11.0941 14.7073 11.3386 14.4628 11.3386 14.1622C11.3386 12.8423 10.2647 11.7684 8.94477 11.7684H7.13739Z" fill="#3762CC"/>
</svg>
